<svg width="32" height="32" viewBox="0 0 32 32" fill="none" xmlns="http://www.w3.org/2000/svg">
<path fill-rule="evenodd" clip-rule="evenodd" d="M16 1.75C8.12994 1.75 1.75 8.12994 1.75 16C1.75 23.8701 8.12994 30.25 16 30.25C23.8701 30.25 30.25 23.8701 30.25 16C30.25 8.12994 23.8701 1.75 16 1.75ZM0.25 16C0.25 7.30152 7.30152 0.25 16 0.25C24.6985 0.25 31.75 7.30152 31.75 16C31.75 24.6985 24.6985 31.75 16 31.75C7.30152 31.75 0.25 24.6985 0.25 16Z" fill="#212121"/>
<path fill-rule="evenodd" clip-rule="evenodd" d="M16.75 15.5587V5.5H15.25V16C15.25 16.2724 15.3976 16.5234 15.6358 16.6557L22.3858 20.4057L23.1142 19.0944L16.75 15.5587Z" fill="#212121"/>
</svg>
