<svg width="40" height="40" viewBox="0 0 40 40" fill="none" xmlns="http://www.w3.org/2000/svg">
<path fill-rule="evenodd" clip-rule="evenodd" d="M19.9361 0.605957C23.5418 0.647103 26.7993 1.53328 29.7084 3.2645C32.5828 4.96115 34.9739 7.36686 36.653 10.2516C38.3737 13.1782 39.2545 16.4554 39.2955 20.083C39.1933 25.0466 37.6278 29.2859 34.5989 32.8011C31.57 36.3163 27.6907 38.4909 23.6749 39.3246V25.4084H27.4715L28.3301 19.9396H22.5811V16.3578C22.5492 15.6152 22.7841 14.8857 23.2432 14.3013C23.7029 13.7152 24.5126 13.4071 25.672 13.3771H29.1436V8.58664C29.0938 8.57061 28.6212 8.50724 27.7257 8.39651C26.7101 8.27768 25.6888 8.21422 24.6663 8.20639C22.3521 8.21706 20.5219 8.86986 19.1756 10.1648C17.8293 11.4593 17.1416 13.3323 17.1124 15.7836V19.9396H12.7374V25.4084H17.1124V39.3246C12.1816 38.4909 8.30227 36.3163 5.27336 32.8011C2.24445 29.2859 0.678985 25.0466 0.576782 20.083C0.617673 16.4552 1.4985 13.178 3.21925 10.2516C4.89837 7.36686 7.28948 4.96115 10.1639 3.2645C13.0729 1.53362 16.3303 0.647436 19.9361 0.605957Z" fill="white"/>
</svg>
