<svg width="105" height="133" viewBox="0 0 105 133" fill="none" xmlns="http://www.w3.org/2000/svg">
<g clip-path="url(#clip0_22_393)">
<path d="M105 103.747C105 104.221 105 104.552 105 105.011C90.8304 105.011 76.7123 105.011 62.4192 105.011C62.3832 104.691 62.3317 104.294 62.2905 103.928C62.4758 103.793 62.6046 103.613 62.7384 103.613C64.3706 103.587 66.0028 103.659 67.6247 103.556C69.2053 103.458 70.786 103.273 72.3358 102.963C73.9783 102.638 75.1265 101.493 76.1305 100.219C76.2284 94.804 76.7587 96.1243 74.1019 88.4862C72.2329 83.1224 70.0137 77.8876 68.397 72.4259C67.8615 70.6156 66.9708 68.9137 66.1572 66.9642C63.382 66.9642 60.4832 66.9642 57.5844 66.9642C54.7526 66.9642 51.9207 66.9642 49.0889 66.9642C46.1695 66.9642 43.2553 67.0003 40.3359 66.9539C37.5452 66.9126 34.7391 67.1447 31.6704 66.7888C32.1081 66.1751 32.3861 65.7883 32.6744 65.3808C43.5333 65.3808 54.3304 65.3808 65.1738 65.3808C65.8071 64.2668 64.973 63.3591 64.6898 62.5288C63.5005 59.0217 62.033 55.6075 60.7767 52.1211C59.1342 47.5516 57.4918 42.9769 55.7927 38.4229C53.6919 32.7961 51.8641 27.0714 49.9487 21.3776C49.0837 18.804 48.2805 16.2098 47.4825 13.6156C47.3177 13.0689 47.3177 12.4758 47.189 11.5269C46.4527 13.1669 45.8657 14.4769 45.253 15.8488C44.7278 15.5961 44.3056 15.3898 43.7084 15.101C45.459 10.0983 47.2096 5.07492 48.9756 0C52.1473 0 55.2211 0 58.5576 0C58.8408 0.44354 59.3608 1.02117 59.6079 1.69164C61.3997 6.56026 63.0885 11.465 64.9009 16.3233C66.6567 21.032 68.5412 25.6944 70.3175 30.3979C71.9754 34.7869 73.5458 39.212 75.1934 43.6061C76.4394 46.9224 77.7627 50.2128 79.019 53.5239C80.332 56.9897 81.6037 60.471 82.9012 63.9419C84.173 67.3355 85.4499 70.7291 86.7217 74.1227C88.0243 77.5936 89.3064 81.0698 90.6245 84.5304C92.2978 88.9194 93.6365 93.4424 95.7476 97.6509C96.4118 98.9815 97.1429 100.338 98.1212 101.431C98.8008 102.189 99.9078 102.685 100.912 103.004C102.168 103.407 103.517 103.494 105 103.747Z" fill="white"/>
<path d="M22.243 65.7882C22.6446 66.2317 22.9638 66.5824 23.3963 67.062C22.9329 67.3096 22.66 67.454 22.3408 67.6242C22.4953 68.1761 22.66 68.7743 22.8299 69.3984C22.9535 69.3158 23.1286 69.2643 23.1543 69.1714C23.2779 68.7795 23.2521 68.2998 23.4684 67.9852C24.1944 66.9434 24.2716 65.7933 24.2047 64.5916C24.1944 64.4214 24.2304 64.2461 24.1995 64.0759C24.0142 62.9877 25.3117 62.0593 24.5548 60.9247C23.9524 60.017 23.2882 59.1505 22.66 58.2635C22.5313 58.0778 22.4283 57.8767 22.1966 57.4795C21.4809 58.2841 21.3419 59.1712 21.136 59.9809C20.8734 61.0227 20.7704 62.1058 20.5902 63.1733C20.4666 63.9109 20.0959 64.3802 19.0919 64.3338C19.7767 61.7293 20.4666 59.2176 21.069 56.6904C21.2235 56.0561 21.0381 55.4527 20.6108 54.7977C19.3442 52.8533 18.2629 50.78 17.1302 48.748C17.0272 48.5675 17.0787 48.2993 17.0427 47.9073C18.9065 48.0827 18.7469 49.8362 19.4883 50.7697C20.2504 51.729 20.7447 52.8997 21.5067 54.2458C21.9598 53.1215 22.3459 52.1519 22.6446 51.4144C20.6211 47.34 18.7057 43.4926 16.708 39.4646C17.1662 39.1036 17.4906 38.8457 17.9231 38.5002C21.1257 40.6096 22.1863 44.1682 23.9318 47.2936C24.2407 47.3297 24.5702 47.3658 24.8998 47.4019C24.9461 47.5205 25.0645 47.6959 25.0285 47.7526C24.529 48.4592 24.6372 49.1709 24.941 49.9187C25.4919 51.2597 26.0171 52.6109 26.5731 54.0137C26.707 53.5031 26.8306 53.0338 26.9438 52.6058C27.2116 52.5697 27.3969 52.482 27.536 52.5336C28.2362 52.7966 28.921 53.0906 29.6624 53.3948C30.512 50.4551 29.0652 47.505 29.3895 44.359C29.8117 44.3281 30.2031 44.3023 30.5841 44.2765C31.1041 45.1481 30.9342 45.9114 30.4245 46.7521C30.8261 46.9738 31.2225 47.1904 31.9073 47.5669C31.9073 45.3802 31.9279 43.5132 31.8867 41.641C31.8764 41.2491 31.6859 40.8365 31.4954 40.4806C30.7849 39.1758 30.0383 37.8864 29.0497 36.1381C28.2928 38.8302 27.6698 41.0428 27.052 43.2502C26.7276 43.1625 26.4341 43.1212 26.4341 43.0851C26.5216 40.2692 27.6441 37.6904 28.1899 34.9467C26.8512 32.5743 25.4661 30.1296 24.076 27.6747C24.874 26.9217 25.3117 27.4787 25.5794 27.948C26.5989 29.7377 27.5514 31.5737 28.6327 33.5903C29.5183 31.0116 30.3369 28.6237 31.2946 25.8335C31.6087 26.473 31.9537 26.8392 31.8816 27.0713C31.1144 29.5004 30.2751 31.9141 29.3535 34.6372C30.7952 36.9168 32.3089 39.4904 33.9977 41.9453C35.841 44.6324 37.8645 47.1956 39.7541 49.8517C40.0373 50.2488 40.0425 50.8522 39.7232 51.5743C37.5195 48.6809 35.321 45.7876 33.0298 42.7757C33.0298 44.4054 33.0298 45.932 33.0298 47.701C32.4119 48.0053 31.7786 48.3199 30.9857 48.7119C30.9857 50.2282 30.9857 51.925 30.9857 53.3536C30.1979 55.2103 29.0394 54.5604 27.778 54.3129C28.679 56.3707 29.58 58.4285 30.4656 60.4502C29.3535 61.1155 28.7923 60.6462 28.334 59.9499C26.7224 57.5363 25.116 55.1123 23.4169 52.549C23.2212 53.1215 23.0616 53.6115 22.8917 54.0963C22.5056 55.1896 22.557 56.0819 23.3139 57.1443C25.3889 60.0531 27.2219 63.1372 29.2299 66.1028C30.2597 67.6242 31.4594 69.0322 32.5921 70.4866C32.8907 70.8682 33.2357 71.2138 33.7557 71.8017C33.1121 71.9926 32.7517 72.0957 32.3295 72.2195C30.028 69.0941 27.7625 66.0202 25.3271 62.7195C25.2808 64.9991 24.735 67.0724 25.9604 69.0116C26.0891 69.2179 26.2179 69.4654 26.2282 69.6975C26.2642 70.4505 26.2385 71.2086 26.2385 72.0441C25.6772 72.0441 25.2859 72.0441 24.8122 72.0441C24.7196 71.3634 24.632 70.729 24.5085 69.8264C23.9112 70.2648 23.5302 70.5433 23.1286 70.8373C23.1286 72.9467 23.1286 74.9993 23.1286 77.2531C22.485 77.5316 21.8259 77.8153 21.0948 78.1248C21.0948 79.6256 21.0948 81.1573 21.0948 82.5756C20.3997 83.6999 19.5913 83.6948 18.6285 83.0192C18.783 83.9836 18.7109 84.979 19.1125 85.7062C19.6789 86.7274 19.7303 87.4288 18.6439 88.1457C16.8882 87.6402 16.6565 85.9847 16.5226 84.5922C16.3939 83.2358 16.8624 81.8226 17.0787 80.3425C18.438 80.5849 18.8396 81.833 19.8436 82.3281C20.8167 79.3007 19.0713 76.2526 19.7046 72.9467C20.2967 73.349 20.688 73.6172 20.9043 73.7616C21.4192 74.8395 20.4615 76.1185 22.2018 77.0623C21.5376 75.3655 22.7784 74.2773 22.2378 72.6991C21.8105 71.4407 21.9649 69.8883 21.3574 68.5835C20.8888 67.4953 20.8888 66.6237 22.243 65.7882ZM23.0101 49.5474C23.4118 47.5205 22.0216 46.2931 21.378 44.8696C19.8848 41.5792 19.7921 41.6204 18.299 40.8468C19.9157 43.8278 21.4089 46.587 23.0101 49.5474ZM17.6245 85.4689C17.7017 85.4638 17.7789 85.4638 17.8562 85.4586C17.8562 85.0202 17.8562 84.5767 17.8562 84.1383C17.7429 84.1435 17.6296 84.1538 17.5215 84.159C17.5575 84.5922 17.5884 85.0306 17.6245 85.4689ZM27.2116 55.1948C27.0983 55.1948 26.985 55.1948 26.8718 55.1896C26.8975 55.4475 26.9233 55.7105 26.9593 55.9684C26.9593 55.9787 27.1086 55.9839 27.1086 55.9787C27.1498 55.7208 27.1807 55.4578 27.2116 55.1948Z" fill="white"/>
<path d="M0.0566371 105.031C0.0360418 104.567 0.0154465 104.237 0 103.923C0.154465 103.799 0.283185 103.613 0.417055 103.613C1.61673 103.582 2.81126 103.593 4.01094 103.577C6.46178 103.536 8.69637 102.86 10.7971 101.55C12.3057 100.606 13.0986 99.1778 13.9224 97.7285C14.3755 96.9394 14.8029 96.1349 15.3589 95.124C16.2497 95.5418 17.1198 95.9544 18.026 96.3824C18.026 97.1457 18.026 97.7337 18.026 98.3216C18.0312 99.7245 18.7469 100.864 19.8848 101.432C21.5633 102.272 23.319 102.881 25.2807 103.149C28.8128 103.639 32.3449 103.448 35.9543 103.613C35.9543 104.139 35.9543 104.531 35.9543 105.026C24.0347 105.031 12.1615 105.031 0.0566371 105.031Z" fill="white"/>
<path d="M82.9321 122.422C83.5088 122.721 83.9619 122.927 84.3892 123.175C87.355 124.898 88.0346 129.328 85.5426 131.546C84.5849 132.397 83.3543 133.021 81.9126 133C78.2312 132.954 74.5498 132.984 70.8787 132.984C70.4411 131.169 70.3175 117.234 70.6985 112.35C73.3913 112.35 76.1305 112.138 78.8131 112.427C80.471 112.607 82.2422 112.772 83.7662 113.845C85.1667 114.83 86.4333 117.177 85.9081 118.755C85.4396 120.158 84.935 121.643 83.2668 122.174C83.1947 122.195 83.1329 122.267 82.9321 122.422ZM72.1402 131.943C74.7609 131.943 77.1551 131.907 79.5442 131.958C80.9292 131.989 82.1237 131.453 83.344 130.932C84.9453 130.246 85.7691 128.281 85.455 126.749C85.1358 125.192 83.5036 123.845 81.856 123.706C81.2639 123.655 80.6512 123.742 80.0797 123.613C77.7678 123.093 74.3027 123.015 72.135 123.495C72.1402 126.233 72.1402 128.967 72.1402 131.943ZM72.2123 113.902C72.2123 116.8 72.2123 119.426 72.2123 122.144C74.6374 122.144 76.9492 122.272 79.2353 122.092C80.4246 121.999 81.6552 121.519 82.721 120.942C84.1884 120.142 84.9607 117.724 84.2039 116.543C83.241 115.042 81.9538 113.907 80.0127 113.902C77.4589 113.897 74.8999 113.902 72.2123 113.902Z" fill="white"/>
<path d="M59.6646 132.778C58.707 133.279 58.0634 132.876 57.7081 132.123C57.1108 130.86 56.6526 129.529 56.1017 128.24C55.9729 127.941 55.7103 127.698 55.4786 127.389C51.6376 127.389 47.812 127.389 43.7651 127.389C43.4458 128.065 43.0803 128.797 42.7507 129.545C42.3491 130.452 42.0248 131.391 41.582 132.273C41.2318 132.969 40.5934 133.139 39.6151 132.856C42.7919 125.981 45.9276 119.194 49.0684 112.401C49.4957 112.401 49.8252 112.401 50.2938 112.401C53.4037 119.152 56.5342 125.965 59.6646 132.778ZM49.6862 114.475C48.018 118.178 46.3704 121.824 44.5889 125.785C48.1416 125.682 51.339 125.878 54.7166 125.641C52.9815 121.798 51.339 118.152 49.6862 114.475Z" fill="white"/>
<path d="M19.6891 112.401C20.6262 112.37 21.0278 112.829 21.0999 113.572C21.1616 114.165 21.1153 114.774 21.1153 115.372C21.1153 120.782 21.1153 126.187 21.1153 131.752C23.041 132.149 24.9872 131.876 26.9129 131.927C28.8694 131.979 30.826 131.938 32.8289 131.938C32.8495 132.319 32.8649 132.546 32.8855 132.876C28.4936 132.876 24.1531 132.876 19.6891 132.876C19.6891 126.074 19.6891 119.261 19.6891 112.401Z" fill="white"/>
<path d="M32.4427 33.9564C33.1378 33.8275 33.5703 34.204 33.9256 34.73C34.3427 35.3386 34.7597 35.9523 35.3158 36.7672C35.841 34.1782 35.4548 31.9656 34.7237 29.815C34.353 28.7268 34.2963 27.8552 35.4394 27.2569C36.7111 28.2987 36.7111 28.2987 36.0057 30.011C36.3868 30.2998 36.8038 30.6195 37.5195 31.1662C37.4526 28.3761 38.0292 25.9469 37.0973 23.5642C37.0201 23.363 37.1179 23.0639 37.2157 22.8421C37.2621 22.739 37.4886 22.7184 37.8181 22.5791C38.1476 23.6467 38.7192 24.5957 38.6471 25.8077C38.5699 27.1744 38.678 28.5566 38.6007 29.9233C38.5699 30.4803 38.369 31.1095 38.0344 31.5324C37.7769 31.8573 37.1848 31.9089 36.6442 32.1204C36.6442 33.5902 36.6442 35.1168 36.6442 36.8188C36.119 37.1282 35.5784 37.4428 35.0789 37.7368C33.7145 36.628 32.5766 35.6377 32.4427 33.9564Z" fill="white"/>
<path d="M32.4427 33.9565C32.108 33.5233 31.7785 33.0952 31.3306 32.5176C31.9381 32.5176 32.3964 32.5176 33.0554 32.5176C32.8031 33.1107 32.6229 33.5336 32.4427 33.9565Z" fill="white"/>
</g>
<defs>
<clipPath id="clip0_22_393">
<rect width="105" height="133" fill="white"/>
</clipPath>
</defs>
</svg>
