<svg width="30" height="31" viewBox="0 0 30 31" fill="none" xmlns="http://www.w3.org/2000/svg">
<g clip-path="url(#clip0_22_374)">
<path d="M7.24082 16.1602L21.1167 29.9977C21.5713 30.4508 22.3074 30.45 22.7612 29.9953C23.2148 29.5407 23.2136 28.8042 22.7589 28.3508L9.70895 15.3369L22.7594 2.32301C23.214 1.86949 23.2152 1.1335 22.7617 0.678814C22.5342 0.450886 22.2361 0.33692 21.9381 0.33692C21.6408 0.33692 21.3439 0.450123 21.1168 0.67647L7.24082 14.5136C7.02185 14.7315 6.89898 15.028 6.89898 15.3369C6.89898 15.6458 7.02221 15.9419 7.24082 16.1602Z" fill="#212121"/>
</g>
<defs>
<clipPath id="clip0_22_374">
<rect width="30" height="30" fill="white" transform="matrix(-1 0 0 -1 30 30.3369)"/>
</clipPath>
</defs>
</svg>
