<svg width="54" height="54" viewBox="0 0 54 54" fill="none" xmlns="http://www.w3.org/2000/svg">
<g clip-path="url(#clip0_22_260)">
<path fill-rule="evenodd" clip-rule="evenodd" d="M20.097 0H52.072V41.2356H50.49V1.58194H20.7546L12.5087 9.87093V16.9274H10.9268V9.21808L20.097 0Z" fill="black"/>
<path fill-rule="evenodd" clip-rule="evenodd" d="M10.9268 41.4751H12.5087V52.418H50.49V42.8175H52.072V54H10.9268V41.4751Z" fill="black"/>
<path fill-rule="evenodd" clip-rule="evenodd" d="M19.6349 8.80575V0.790985H21.2168V10.3877H11.7178V8.80575H19.6349Z" fill="black"/>
<path fill-rule="evenodd" clip-rule="evenodd" d="M11.7177 22.2596C9.53351 22.2596 7.76285 24.0302 7.76285 26.2144C7.76285 28.3986 9.53351 30.1693 11.7177 30.1693C13.9019 30.1693 15.6726 28.3986 15.6726 26.2144C15.6726 24.0302 13.9019 22.2596 11.7177 22.2596ZM6.18091 26.2144C6.18091 23.1565 8.65982 20.6776 11.7177 20.6776C14.7756 20.6776 17.2545 23.1565 17.2545 26.2144C17.2545 29.2723 14.7756 31.7512 11.7177 31.7512C8.65982 31.7512 6.18091 29.2723 6.18091 26.2144Z" fill="black"/>
<path fill-rule="evenodd" clip-rule="evenodd" d="M41.7877 42.0266C40.4772 42.0266 39.4148 43.089 39.4148 44.3995C39.4148 45.71 40.4772 46.7724 41.7877 46.7724C43.0983 46.7724 44.1607 45.71 44.1607 44.3995C44.1607 43.089 43.0983 42.0266 41.7877 42.0266ZM37.8329 44.3995C37.8329 42.2153 39.6035 40.4446 41.7877 40.4446C43.972 40.4446 45.7426 42.2153 45.7426 44.3995C45.7426 46.5837 43.972 48.3544 41.7877 48.3544C39.6035 48.3544 37.8329 46.5837 37.8329 44.3995Z" fill="black"/>
<path fill-rule="evenodd" clip-rule="evenodd" d="M11.7178 15.924L14.4678 17.7512L17.7674 17.8889L18.9161 20.985L21.5077 23.0336L20.6146 26.2144L21.5077 29.3952L18.9162 31.4438L17.7675 34.5399L14.4678 34.6777L11.7178 36.5049L8.96783 34.6777L5.66826 34.5399L4.51947 31.4438L1.92786 29.3952L2.82101 26.2144L1.92786 23.0337L4.51946 20.9851L5.66813 17.889L8.96773 17.7512L11.7178 15.924ZM11.7178 17.8233L9.47519 19.3133L6.78533 19.4257L5.84837 21.9512L3.7359 23.621L4.46414 26.2144L3.7359 28.8079L5.84836 30.4777L6.78542 33.0032L9.4753 33.1156L11.7178 34.6056L13.9603 33.1156L16.6503 33.0032L17.5873 30.4778L19.6997 28.8079L18.9715 26.2144L19.6997 23.6209L17.5872 21.9511L16.6502 19.4256L13.9604 19.3134L11.7178 17.8233Z" fill="black"/>
<path fill-rule="evenodd" clip-rule="evenodd" d="M7.77136 33.9782H9.35331V42.1253L11.7252 40.52L14.0969 42.1253V34.1241H15.6789V45.1063L11.7252 42.4302L7.77136 45.1063V33.9782Z" fill="black"/>
<path fill-rule="evenodd" clip-rule="evenodd" d="M25.9626 5.64185H31.4995V7.22379H27.5446V8.80574H44.1606V7.22379H33.0402V5.64185H45.7425V10.3877H25.9626V5.64185Z" fill="black"/>
<path fill-rule="evenodd" clip-rule="evenodd" d="M45.7369 16.7155H23.5897V15.1335H45.7369V16.7155Z" fill="black"/>
<path fill-rule="evenodd" clip-rule="evenodd" d="M45.7369 23.0432H23.5897V21.4613H45.7369V23.0432Z" fill="black"/>
<path fill-rule="evenodd" clip-rule="evenodd" d="M45.7369 29.371H23.5897V27.7891H45.7369V29.371Z" fill="black"/>
<path fill-rule="evenodd" clip-rule="evenodd" d="M45.7369 35.6988H23.5897V34.1169H45.7369V35.6988Z" fill="black"/>
<path fill-rule="evenodd" clip-rule="evenodd" d="M26.504 43.1959C26.8602 43.092 27.2504 43.3695 27.2594 43.7615L26.504 43.1959ZM26.0612 41.6772C27.4355 41.2765 28.8086 42.3152 28.8409 43.7253C28.8558 44.3731 28.7223 44.9555 28.6195 45.3757C28.6085 45.4205 28.5982 45.4623 28.5885 45.5017C28.5879 45.5039 28.5874 45.506 28.5869 45.5082C28.9809 45.4029 29.5697 45.1992 30.4363 44.858L31.0159 46.3299C29.888 46.7741 29.085 47.0463 28.5331 47.1395C28.2676 47.1844 27.9444 47.2103 27.642 47.1063C27.4746 47.0488 27.3084 46.9496 27.1733 46.7944C27.0398 46.641 26.9696 46.4707 26.9347 46.3188C26.8721 46.0457 26.9123 45.7733 26.9447 45.5977C26.9737 45.4412 27.0175 45.264 27.0578 45.1014C27.0664 45.0667 27.0748 45.0327 27.0829 44.9997C27.1824 44.593 27.2691 44.1851 27.2594 43.7615M26.0612 41.6772L26.0612 41.6772L26.0612 41.6772ZM24.6355 44.6385C24.0243 45.3747 23.6384 46.131 23.5587 46.5609L22.0033 46.2726C22.1538 45.4606 22.7305 44.4565 23.4184 43.628C24.1066 42.7992 25.0492 41.9723 26.0612 41.6772M24.6355 44.6385C25.2465 43.9027 25.9396 43.3605 26.504 43.1959L24.6355 44.6385Z" fill="black"/>
</g>
<defs>
<clipPath id="clip0_22_260">
<rect width="54" height="54" fill="white"/>
</clipPath>
</defs>
</svg>
