<svg width="54" height="54" viewBox="0 0 54 54" fill="none" xmlns="http://www.w3.org/2000/svg">
<g clip-path="url(#clip0_22_280)">
<path d="M53.7527 43.0135L42.109 31.3698C42.1667 31.3245 42.2273 31.2831 42.2904 31.2457L45.3937 29.5945C46.1873 29.1773 46.7865 28.4665 47.0635 27.6137C47.3404 26.761 47.2732 25.8337 46.8762 25.0298L45.3304 21.8683C45.2118 21.6273 45.1501 21.3623 45.1501 21.0937C45.1501 20.8251 45.2118 20.5601 45.3304 20.3192L46.8762 17.1576C47.2732 16.3537 47.3404 15.4265 47.0635 14.5738C46.7865 13.721 46.1873 13.0102 45.3937 12.593L42.287 10.9434C42.0495 10.8183 41.8439 10.6402 41.6862 10.423C41.5285 10.2057 41.4229 9.95507 41.3775 9.69046L40.7691 6.22433C40.6178 5.34083 40.1273 4.55139 39.4023 4.02431C38.6772 3.49724 37.775 3.27423 36.8879 3.40283L33.4032 3.89643C33.1374 3.93343 32.8667 3.9096 32.6115 3.82673C32.3563 3.74385 32.1233 3.6041 31.93 3.41802L29.3987 0.971146C28.7569 0.345063 27.8958 -0.00537109 26.9991 -0.00537109C26.1025 -0.00537109 25.2413 0.345063 24.5995 0.971146L22.0682 3.41802C21.8749 3.6041 21.6419 3.74385 21.3867 3.82673C21.1315 3.9096 20.8608 3.93343 20.5951 3.89643L17.1095 3.40283C16.2225 3.27468 15.3205 3.49786 14.5955 4.02485C13.8706 4.55185 13.38 5.34103 13.2283 6.22433L12.6199 9.69046C12.5746 9.95519 12.4688 10.2059 12.311 10.4232C12.1531 10.6405 11.9473 10.8185 11.7095 10.9434L8.60621 12.593C7.8126 13.0102 7.21342 13.721 6.93647 14.5738C6.65952 15.4265 6.72672 16.3537 7.12374 17.1576L8.66949 20.3192C8.78815 20.5601 8.84986 20.8251 8.84986 21.0937C8.84986 21.3623 8.78815 21.6273 8.66949 21.8683L7.12037 25.0298C6.72334 25.8337 6.65614 26.761 6.93309 27.6137C7.21004 28.4665 7.80922 29.1773 8.60283 29.5945L11.7129 31.2441C11.7756 31.2816 11.8359 31.323 11.8935 31.3681L0.249709 43.0118C0.143098 43.1183 0.0669434 43.2514 0.0291584 43.3973C-0.00862665 43.5431 -0.00666356 43.6964 0.0348437 43.8413C0.0763509 43.9861 0.155888 44.1172 0.265191 44.2209C0.374493 44.3246 0.509574 44.3972 0.656397 44.431L7.8983 46.1025L9.56977 53.3444C9.60362 53.4912 9.67617 53.6263 9.77988 53.7356C9.88359 53.8449 10.0147 53.9244 10.1595 53.966C10.3044 54.0075 10.4577 54.0094 10.6035 53.9716C10.7494 53.9338 10.8825 53.8577 10.989 53.7511L24.0527 40.6865L24.6003 41.2172C25.2423 41.8431 26.1034 42.1934 27 42.1934C27.8965 42.1934 28.7576 41.8431 29.3996 41.2172L29.9472 40.6865L43.0135 53.7528C43.12 53.8594 43.253 53.9355 43.3989 53.9733C43.5448 54.0111 43.6981 54.0091 43.8429 53.9676C43.9878 53.9261 44.1189 53.8466 44.2226 53.7373C44.3263 53.628 44.3988 53.4929 44.4327 53.3461L46.1041 46.1042L53.3461 44.4327C53.4929 44.3989 53.628 44.3263 53.7373 44.2226C53.8466 44.1189 53.9261 43.9878 53.9676 43.843C54.0091 43.6981 54.0111 43.5448 53.9733 43.3989C53.9355 43.2531 53.8594 43.12 53.7527 43.0135ZM10.8691 51.4831L9.42212 45.2106C9.38659 45.0564 9.30842 44.9153 9.19652 44.8034C9.08462 44.6915 8.94351 44.6134 8.7893 44.5778L2.51687 43.1308L12.7018 32.9459L13.2308 35.9632C13.3829 36.8463 13.8736 37.6352 14.5984 38.1621C15.3233 38.689 16.2251 38.9124 17.1121 38.7846L20.5967 38.2911C20.8625 38.2544 21.1331 38.2784 21.3882 38.3613C21.6433 38.4441 21.8764 38.5837 22.0699 38.7695L22.8386 39.5128L10.8691 51.4831ZM25.774 40.0039L24.6391 38.907L23.2436 37.557C22.6033 36.9338 21.7451 36.585 20.8516 36.585C20.6875 36.5853 20.5238 36.5968 20.3613 36.6196L16.875 37.1132C16.4214 37.1798 15.9599 37.0662 15.5891 36.7967C15.2183 36.5272 14.9678 36.1232 14.8913 35.6712L14.283 32.2051C14.2083 31.8116 14.0656 31.4341 13.8611 31.0896C13.842 31.0486 13.8197 31.0091 13.7944 30.9715C13.4794 30.459 13.0347 30.0387 12.5052 29.7531L9.39596 28.1036C8.99009 27.8909 8.68347 27.5279 8.54159 27.0921C8.39971 26.6564 8.4338 26.1824 8.63658 25.7715L10.1823 22.6125C10.4142 22.1407 10.5348 21.622 10.5348 21.0963C10.5348 20.5706 10.4142 20.0519 10.1823 19.5801L8.63658 16.4185C8.4338 16.0076 8.39971 15.5336 8.54159 15.0979C8.68347 14.6622 8.99009 14.2992 9.39596 14.0864L12.5043 12.4369C12.9695 12.1922 13.3721 11.8438 13.6811 11.4186C13.9901 10.9934 14.1972 10.5029 14.2863 9.98493L14.8947 6.5188C14.9698 6.06666 15.2194 5.66204 15.5897 5.39193C15.96 5.12181 16.4215 5.00777 16.875 5.0743L20.3605 5.5679C20.8806 5.64257 21.4109 5.59689 21.9106 5.43437C22.4103 5.27186 22.8661 4.99684 23.2427 4.63049L25.774 2.18361C26.1018 1.86357 26.5418 1.68441 27 1.68441C27.4581 1.68441 27.8981 1.86357 28.2259 2.18361L30.7572 4.63049C31.1337 4.99692 31.5892 5.27206 32.0888 5.43472C32.5883 5.59739 33.1185 5.64324 33.6386 5.56874L37.125 5.0743C37.5785 5.00742 38.0402 5.12094 38.411 5.39051C38.7819 5.66007 39.0323 6.06422 39.1086 6.51627L39.717 9.9824C39.8061 10.5002 40.0131 10.9907 40.322 11.4158C40.6308 11.841 41.0332 12.1894 41.4981 12.4343L44.6073 14.0839C45.0132 14.2966 45.3198 14.6596 45.4617 15.0954C45.6036 15.5311 45.5695 16.005 45.3667 16.416L43.8176 19.575C43.5857 20.0468 43.4651 20.5655 43.4651 21.0912C43.4651 21.6169 43.5857 22.1356 43.8176 22.6074L45.3633 25.769C45.5661 26.1799 45.6002 26.6538 45.4583 27.0896C45.3164 27.5253 45.0098 27.8883 44.604 28.1011L41.4956 29.7506C41.0304 29.9953 40.6278 30.3437 40.3188 30.7689C40.0098 31.194 39.8027 31.6846 39.7136 32.2026L39.1052 35.6687C39.0291 36.1203 38.7793 36.5243 38.4093 36.7942C38.0392 37.0641 37.5783 37.1786 37.125 37.1132L33.6377 36.6187C33.1176 36.5441 32.5873 36.5898 32.0876 36.7524C31.588 36.9149 31.1322 37.1899 30.7555 37.5561L28.2242 40.003C27.8966 40.3227 27.457 40.5017 26.9993 40.5018C26.5415 40.502 26.1019 40.3233 25.774 40.0039ZM45.2106 44.5778C45.0564 44.6134 44.9153 44.6915 44.8034 44.8034C44.6915 44.9153 44.6133 45.0564 44.5778 45.2106L43.1308 51.4831L31.1605 39.5128L31.9283 38.7695C32.122 38.5839 32.355 38.4445 32.6101 38.3616C32.8652 38.2788 33.1358 38.2547 33.4015 38.2911L36.887 38.7846C37.774 38.9126 38.6759 38.6893 39.4008 38.1624C40.1257 37.6354 40.6163 36.8464 40.7683 35.9632L41.2973 32.9459L51.4831 43.1308L45.2106 44.5778Z" fill="black"/>
<path d="M39.6563 21.0937C39.6567 18.0635 38.5693 15.1337 36.5918 12.8376C36.5225 12.7452 36.435 12.6679 36.3346 12.6106C36.2343 12.5533 36.1233 12.5173 36.0084 12.5047C35.8935 12.4921 35.7773 12.5032 35.6669 12.5373C35.5566 12.5715 35.4544 12.628 35.3667 12.7032C35.2791 12.7785 35.2078 12.871 35.1573 12.9749C35.1069 13.0789 35.0783 13.1921 35.0734 13.3075C35.0685 13.423 35.0873 13.5382 35.1288 13.646C35.1702 13.7539 35.2334 13.8521 35.3143 13.9345C37.1249 16.0406 38.0681 18.7558 37.953 21.5308C37.8379 24.3058 36.6732 26.9336 34.6944 28.8825C32.7157 30.8315 30.0705 31.9562 27.2941 32.0292C24.5176 32.1021 21.8171 31.1179 19.7387 29.2755C17.6603 27.4332 16.3592 24.8702 16.0986 22.1051C15.8379 19.3399 16.6372 16.579 18.3346 14.3807C20.0321 12.1824 22.5012 10.7108 25.2423 10.2637C27.9835 9.81651 30.7922 10.4271 33.1003 11.972C33.1922 12.0376 33.2963 12.0841 33.4064 12.1087C33.5166 12.1334 33.6305 12.1357 33.7416 12.1155C33.8526 12.0953 33.9585 12.0531 34.053 11.9912C34.1474 11.9294 34.2284 11.8493 34.2913 11.7555C34.3542 11.6618 34.3977 11.5564 34.4191 11.4456C34.4406 11.3348 34.4395 11.2208 34.4161 11.1104C34.3927 10.9999 34.3474 10.8953 34.2828 10.8027C34.2183 10.7102 34.1358 10.6315 34.0403 10.5713C31.6954 9.00167 28.8931 8.26066 26.0788 8.46604C23.2645 8.67143 20.5996 9.81141 18.5074 11.7049C16.4152 13.5984 15.0158 16.1367 14.5316 18.9166C14.0473 21.6965 14.5059 24.5585 15.8345 27.048C17.1632 29.5374 19.2856 31.5114 21.8647 32.6563C24.4437 33.8013 27.3315 34.0515 30.069 33.3672C32.8066 32.683 35.237 31.1035 36.974 28.8798C38.7111 26.656 39.6551 23.9155 39.6563 21.0937Z" fill="black"/>
<path d="M31.8727 17.1382L25.2981 24.0621L22.1493 20.4744C22.0785 20.384 21.99 20.309 21.8892 20.254C21.7884 20.1989 21.6775 20.165 21.5631 20.1544C21.4488 20.1437 21.3335 20.1565 21.2242 20.192C21.115 20.2275 21.0142 20.2849 20.9279 20.3607C20.8417 20.4365 20.7718 20.5291 20.7226 20.6328C20.6733 20.7366 20.6458 20.8493 20.6417 20.964C20.6375 21.0788 20.6568 21.1932 20.6985 21.3002C20.7401 21.4073 20.8031 21.5047 20.8836 21.5865L24.6375 25.8685C24.7148 25.9568 24.8096 26.028 24.916 26.0775C25.0223 26.127 25.1378 26.1539 25.2551 26.1562H25.272C25.3865 26.1562 25.4998 26.1328 25.6049 26.0875C25.7101 26.0423 25.8049 25.9761 25.8837 25.893L33.0936 18.2992C33.174 18.2198 33.2376 18.1249 33.2807 18.0204C33.3237 17.9158 33.3453 17.8036 33.3442 17.6906C33.343 17.5775 33.3192 17.4658 33.274 17.3621C33.2289 17.2584 33.1633 17.1649 33.0813 17.0871C32.9993 17.0092 32.9024 16.9487 32.7965 16.909C32.6906 16.8693 32.5778 16.8513 32.4649 16.8561C32.3519 16.8609 32.241 16.8883 32.1388 16.9368C32.0367 16.9853 31.9453 17.0538 31.8701 17.1382H31.8727Z" fill="black"/>
</g>
<defs>
<clipPath id="clip0_22_280">
<rect width="54" height="54" fill="white"/>
</clipPath>
</defs>
</svg>
