<svg width="458" height="535" viewBox="0 0 458 535" fill="none" xmlns="http://www.w3.org/2000/svg">
<path d="M325.334 199.832C324.722 199.178 324.729 198.15 325.409 197.513L348.251 176.12C348.904 175.509 349.932 175.517 350.57 176.197C351.182 176.851 351.175 177.879 350.495 178.516L327.652 199.909C327 200.52 325.946 200.485 325.334 199.832Z" stroke="#ECD8BD" stroke-miterlimit="10"/>
<path d="M296.915 175.755C296.379 175.184 296.328 174.312 296.798 173.668L315.565 148.631C316.115 147.911 317.121 147.786 317.817 148.311C318.512 148.835 318.663 149.868 318.14 150.563L299.373 175.6C298.822 176.32 297.816 176.445 297.121 175.921C297.042 175.892 296.966 175.81 296.915 175.755Z" stroke="#ECD8BD" stroke-miterlimit="10"/>
<path d="M264.713 156.96C264.254 156.47 264.145 155.754 264.456 155.105L278.595 127.198C279.016 126.394 279.977 126.057 280.781 126.479C281.559 126.874 281.923 127.862 281.501 128.666L267.362 156.573C266.941 157.377 265.981 157.714 265.177 157.292C264.995 157.206 264.84 157.096 264.713 156.96Z" stroke="#ECD8BD" stroke-miterlimit="10"/>
<path d="M229.762 144.059C229.38 143.651 229.215 143.039 229.392 142.465L238.454 112.516C238.719 111.654 239.604 111.182 240.466 111.449C241.328 111.715 241.8 112.601 241.535 113.462L232.473 143.411C232.208 144.273 231.323 144.744 230.461 144.478C230.199 144.417 229.941 144.25 229.762 144.059Z" stroke="#ECD8BD" stroke-miterlimit="10"/>
<path d="M193.108 137.406C192.802 137.079 192.606 136.598 192.701 136.1L196.419 105.023C196.526 104.156 197.339 103.498 198.206 103.606C199.073 103.714 199.732 104.527 199.625 105.394L195.907 136.47C195.8 137.337 194.987 137.996 194.121 137.888C193.699 137.874 193.362 137.678 193.108 137.406Z" stroke="#ECD8BD" stroke-miterlimit="10"/>
<path d="M155.848 137.246C155.593 136.974 155.42 136.625 155.406 136.229L153.697 104.972C153.646 104.1 154.331 103.305 155.228 103.282C156.1 103.232 156.896 103.918 156.92 104.816L158.628 136.073C158.68 136.945 157.995 137.74 157.097 137.762C156.621 137.799 156.154 137.573 155.848 137.246Z" stroke="#ECD8BD" stroke-miterlimit="10"/>
<path d="M119.146 143.514C118.967 143.323 118.818 143.055 118.748 142.762L111.634 112.274C111.425 111.397 111.981 110.519 112.831 110.336C113.708 110.128 114.586 110.685 114.77 111.535L121.884 142.023C122.093 142.9 121.537 143.778 120.687 143.961C120.101 144.152 119.528 143.922 119.146 143.514Z" stroke="#ECD8BD" stroke-miterlimit="10"/>
<path d="M84.0854 156.113C83.9579 155.977 83.8576 155.816 83.7845 155.629L71.4733 126.84C71.1044 126.011 71.5038 125.074 72.3332 124.706C73.1627 124.338 74.0992 124.739 74.468 125.569L86.7793 154.357C87.1482 155.187 86.7488 156.123 85.9193 156.491C85.2514 156.759 84.5443 156.603 84.0854 156.113Z" stroke="#ECD8BD" stroke-miterlimit="10"/>
<path d="M51.7635 174.58C51.687 174.498 51.636 174.444 51.5867 174.337L34.4723 148.105C33.9692 147.35 34.2122 146.356 34.9396 145.879C35.6943 145.376 36.7157 145.595 37.1662 146.349L54.2806 172.58C54.7837 173.336 54.5407 174.33 53.8133 174.807C53.1657 175.26 52.2989 175.152 51.7635 174.58Z" stroke="#ECD8BD" stroke-miterlimit="10"/>
<path d="M23.1469 198.366L1.7307 175.498C1.11881 174.845 1.12557 173.817 1.80542 173.18C2.45807 172.569 3.48637 172.577 4.12375 173.257L25.54 196.125C26.1518 196.778 26.1451 197.806 25.4652 198.443C24.7854 199.08 23.7588 199.019 23.1469 198.366Z" stroke="#ECD8BD" stroke-miterlimit="10"/>
<path d="M345.632 524.933L324.216 502.066C323.604 501.412 323.611 500.384 324.291 499.747C324.943 499.136 325.971 499.144 326.609 499.824L348.025 522.692C348.637 523.345 348.63 524.373 347.95 525.01C347.272 525.594 346.244 525.586 345.632 524.933Z" stroke="#ECD8BD" stroke-miterlimit="10"/>
<path d="M348.287 473.645C347.752 473.073 347.701 472.201 348.17 471.558C348.721 470.837 349.727 470.713 350.422 471.237L375.477 490.032C376.198 490.583 376.323 491.59 375.8 492.285C375.249 493.005 374.243 493.129 373.548 492.605L348.493 473.81C348.415 473.781 348.338 473.699 348.287 473.645Z" stroke="#ECD8BD" stroke-miterlimit="10"/>
<path d="M367.02 441.486C366.561 440.996 366.453 440.28 366.764 439.631C367.185 438.828 368.145 438.491 368.949 438.913L396.87 453.083C397.674 453.505 398.012 454.466 397.591 455.269C397.169 456.073 396.209 456.41 395.405 455.988L367.484 441.818C367.302 441.733 367.148 441.622 367.02 441.486Z" stroke="#ECD8BD" stroke-miterlimit="10"/>
<path d="M379.882 406.547C379.5 406.139 379.335 405.527 379.512 404.952C379.777 404.091 380.662 403.619 381.524 403.885L411.481 412.98C412.343 413.246 412.815 414.132 412.55 414.993C412.285 415.855 411.399 416.327 410.538 416.06L380.581 406.966C380.319 406.905 380.061 406.738 379.882 406.547Z" stroke="#ECD8BD" stroke-miterlimit="10"/>
<path d="M386.471 369.869C386.165 369.543 385.97 369.061 386.065 368.564C386.172 367.697 386.984 367.038 387.851 367.146L418.929 370.898C419.796 371.006 420.456 371.819 420.349 372.686C420.242 373.552 419.429 374.211 418.562 374.103L387.484 370.351C387.09 370.312 386.726 370.142 386.471 369.869Z" stroke="#ECD8BD" stroke-miterlimit="10"/>
<path d="M386.644 332.609C386.389 332.337 386.215 331.988 386.202 331.592C386.151 330.72 386.836 329.925 387.733 329.902L418.986 328.227C419.858 328.177 420.654 328.862 420.677 329.76C420.728 330.632 420.043 331.427 419.146 331.45L387.893 333.125C387.417 333.162 386.95 332.936 386.644 332.609Z" stroke="#ECD8BD" stroke-miterlimit="10"/>
<path d="M380.284 295.896C380.106 295.705 379.956 295.436 379.886 295.144C379.677 294.267 380.233 293.388 381.083 293.206L411.561 286.124C412.438 285.916 413.317 286.473 413.5 287.323C413.709 288.2 413.154 289.078 412.304 289.261L381.826 296.343C381.267 296.509 380.667 296.304 380.284 295.896Z" stroke="#ECD8BD" stroke-miterlimit="10"/>
<path d="M367.674 260.847C367.546 260.711 367.446 260.549 367.373 260.362C367.004 259.532 367.403 258.596 368.233 258.228L397.006 245.947C397.835 245.579 398.772 245.979 399.141 246.809C399.51 247.639 399.11 248.575 398.281 248.943L369.508 261.224C368.865 261.519 368.133 261.337 367.674 260.847Z" stroke="#ECD8BD" stroke-miterlimit="10"/>
<path d="M349.201 228.477C349.124 228.396 349.073 228.341 349.024 228.234C348.521 227.479 348.764 226.485 349.492 226.008L375.703 208.92C376.458 208.418 377.479 208.637 377.93 209.39C378.433 210.145 378.19 211.139 377.462 211.616L351.251 228.704C350.576 229.183 349.736 229.049 349.201 228.477Z" stroke="#ECD8BD" stroke-miterlimit="10"/>
</svg>
