<svg width="114" height="114" viewBox="0 0 114 114" fill="none" xmlns="http://www.w3.org/2000/svg">
<path d="M108.415 51.7386L63.0946 54.4726L97.0728 24.3577C97.2243 24.2269 97.3827 24.0616 97.5204 23.9101C99.4487 21.7339 99.249 18.4008 97.0728 16.4726C94.8967 14.5444 91.5636 14.7441 89.6353 16.9202L59.5273 50.9054L62.2544 5.58496C62.2682 5.38525 62.2682 5.1511 62.2544 4.95139C62.0822 2.04527 59.5824 -0.165316 56.6763 0.00684733C53.7702 0.179011 51.5596 2.67883 51.7317 5.58496L54.4657 50.9054L24.3646 16.9271C24.2337 16.7756 24.0685 16.6172 23.917 16.4795C21.7408 14.5512 18.4077 14.751 16.4795 16.9271C14.5512 19.1033 14.751 22.4364 16.9271 24.3646L50.9054 54.4726L5.58496 51.7386C5.38525 51.7249 5.1511 51.7249 4.95139 51.7386C2.04527 51.9108 -0.165316 54.4106 0.00684733 57.3167C0.179011 60.2229 2.67883 62.4335 5.58496 62.2613L50.9054 59.5273L16.9271 89.6422C16.7825 89.7731 16.6172 89.9383 16.4795 90.0899C14.5512 92.266 14.751 95.5991 16.9271 97.5273C19.1033 99.4556 22.4364 99.2559 24.3646 97.0797L54.4726 63.0946L51.7386 108.415C51.7317 108.615 51.7249 108.849 51.7386 109.049C51.9108 111.955 54.4106 114.165 57.3167 113.993C60.2229 113.821 62.4335 111.321 62.2613 108.415L59.5273 63.0946L89.6422 97.0728C89.7731 97.2243 89.9383 97.3827 90.0899 97.5204C92.266 99.4487 95.5991 99.249 97.5273 97.0728C99.4556 94.8967 99.2559 91.5636 97.0797 89.6353L63.0946 59.5273L108.415 62.2613C108.615 62.2751 108.849 62.2751 109.049 62.2613C111.955 62.0891 114.165 59.5893 113.993 56.6832C113.814 53.7771 111.321 51.5665 108.415 51.7386Z" fill="#ECD8BD"/>
</svg>
