<svg width="38" height="48" viewBox="0 0 38 48" fill="none" xmlns="http://www.w3.org/2000/svg">
<g clip-path="url(#clip0_22_427)">
<path d="M38 37.4425C38 37.6138 38 37.7329 38 37.8986C32.872 37.8986 27.7626 37.8986 22.5898 37.8986C22.5768 37.7832 22.5581 37.6398 22.5432 37.5077C22.6103 37.4593 22.6569 37.3941 22.7053 37.3941C23.296 37.3848 23.8867 37.4109 24.4737 37.3737C25.0457 37.3383 25.6178 37.2713 26.1787 37.1596C26.7731 37.0423 27.1886 36.6291 27.552 36.1694C27.5874 34.215 27.7793 34.6915 26.8178 31.9349C26.1414 29.9991 25.3383 28.1098 24.7532 26.1387C24.5594 25.4853 24.237 24.8711 23.9426 24.1675C22.9383 24.1675 21.8892 24.1675 20.8401 24.1675C19.8152 24.1675 18.7904 24.1675 17.7655 24.1675C16.709 24.1675 15.6543 24.1805 14.5977 24.1638C13.5878 24.1489 12.5722 24.2327 11.4617 24.1042C11.6201 23.8827 11.7207 23.7431 11.825 23.5961C15.7549 23.5961 19.6624 23.5961 23.5867 23.5961C23.8159 23.194 23.514 22.8664 23.4116 22.5668C22.9811 21.3011 22.45 20.0689 21.9954 18.8106C21.401 17.1615 20.8065 15.5105 20.1916 13.8669C19.4314 11.8362 18.7699 9.77013 18.0767 7.71522C17.7636 6.78641 17.4729 5.85016 17.1841 4.91391C17.1245 4.71661 17.1245 4.50256 17.0779 4.16007C16.8114 4.75198 16.599 5.22476 16.3773 5.71987C16.1872 5.62866 16.0344 5.55421 15.8183 5.44998C16.4518 3.64449 17.0854 1.83155 17.7245 0C18.8724 0 19.9848 0 21.1923 0C21.2948 0.160074 21.483 0.368543 21.5724 0.610516C22.2209 2.36761 22.832 4.13774 23.488 5.89111C24.1234 7.59051 24.8054 9.27315 25.4482 10.9707C26.0482 12.5547 26.6166 14.1517 27.2129 15.7376C27.6638 16.9344 28.1427 18.1219 28.5974 19.3169C29.0725 20.5677 29.5328 21.8241 30.0023 23.0768C30.4626 24.3015 30.9247 25.5263 31.385 26.751C31.8564 28.0037 32.3204 29.2583 32.7974 30.5072C33.403 32.0912 33.8875 33.7236 34.6515 35.2424C34.8919 35.7227 35.1565 36.2122 35.5105 36.6068C35.7565 36.8804 36.1571 37.0591 36.5205 37.1745C36.9751 37.3197 37.4633 37.3513 38 37.4425Z" fill="white"/>
<path d="M8.04987 23.7431C8.19521 23.9032 8.31074 24.0298 8.46726 24.2029C8.29956 24.2922 8.2008 24.3443 8.08527 24.4058C8.14117 24.6049 8.2008 24.8208 8.26229 25.0461C8.30701 25.0163 8.37037 24.9977 8.37969 24.9642C8.42441 24.8227 8.41509 24.6496 8.49335 24.5361C8.75609 24.1601 8.78404 23.745 8.75982 23.3113C8.75609 23.2499 8.76913 23.1866 8.75795 23.1252C8.69087 22.7324 9.16044 22.3974 8.88653 21.9879C8.66851 21.6603 8.42813 21.3476 8.2008 21.0274C8.15422 20.9604 8.11695 20.8878 8.0331 20.7445C7.77409 21.0349 7.72377 21.355 7.64924 21.6473C7.55421 22.0233 7.51694 22.4141 7.45172 22.7994C7.407 23.0656 7.27284 23.235 6.90948 23.2182C7.15731 22.2783 7.407 21.3718 7.62502 20.4597C7.68092 20.2308 7.61383 20.013 7.45917 19.7766C7.00078 19.0749 6.60947 18.3267 6.19953 17.5933C6.16226 17.5281 6.18089 17.4314 6.16785 17.2899C6.84239 17.3532 6.78463 17.986 7.05296 18.3229C7.32874 18.6691 7.50762 19.0917 7.7834 19.5775C7.94738 19.1717 8.08713 18.8218 8.19521 18.5556C7.4629 17.0851 6.76972 15.6966 6.04673 14.2429C6.21257 14.1126 6.32996 14.0195 6.48649 13.8948C7.64551 14.6561 8.02937 15.9404 8.66106 17.0684C8.77286 17.0814 8.89212 17.0945 9.01137 17.1075C9.02814 17.1503 9.071 17.2136 9.05796 17.234C8.87721 17.4891 8.91634 17.7459 9.02628 18.0158C9.22566 18.4998 9.41573 18.9874 9.61697 19.4937C9.66542 19.3094 9.71014 19.1401 9.75114 18.9856C9.84803 18.9725 9.91511 18.9409 9.96543 18.9595C10.2188 19.0544 10.4667 19.1605 10.735 19.2703C11.0425 18.2094 10.5189 17.1447 10.6362 16.0093C10.789 15.9981 10.9307 15.9888 11.0686 15.9795C11.2568 16.2941 11.1953 16.5696 11.0108 16.873C11.1561 16.953 11.2996 17.0312 11.5474 17.167C11.5474 16.3778 11.5549 15.704 11.54 15.0284C11.5363 14.8869 11.4673 14.738 11.3984 14.6096C11.1412 14.1387 10.871 13.6733 10.5133 13.0423C10.2393 14.0139 10.0139 14.8125 9.79027 15.6091C9.67287 15.5775 9.56666 15.5626 9.56666 15.5495C9.59834 14.5333 10.0046 13.6026 10.2021 12.6124C9.7176 11.7562 9.21635 10.8739 8.71323 9.98789C9.00206 9.71614 9.16044 9.91716 9.25734 10.0865C9.62629 10.7324 9.97102 11.3951 10.3623 12.1228C10.6828 11.1922 10.9791 10.3304 11.3257 9.32339C11.4394 9.5542 11.5642 9.68635 11.5381 9.77011C11.2605 10.6468 10.9567 11.5179 10.6232 12.5007C11.1449 13.3234 11.6928 14.2522 12.304 15.1382C12.9711 16.1079 13.7034 17.033 14.3872 17.9916C14.4897 18.1349 14.4916 18.3527 14.3761 18.6133C13.5785 17.5691 12.7829 16.5249 11.9537 15.4379C11.9537 16.026 11.9537 16.577 11.9537 17.2154C11.7301 17.3253 11.5009 17.4388 11.2139 17.5803C11.2139 18.1275 11.2139 18.7399 11.2139 19.2555C10.9288 19.9255 10.5095 19.691 10.053 19.6017C10.3791 20.3443 10.7052 21.087 11.0257 21.8166C10.6232 22.0568 10.4201 21.8874 10.2543 21.6361C9.67101 20.765 9.08964 19.8902 8.47472 18.9651C8.40391 19.1717 8.34614 19.3485 8.28465 19.5235C8.1449 19.9181 8.16353 20.2401 8.43745 20.6235C9.18839 21.6733 9.85176 22.7864 10.5785 23.8567C10.9512 24.4058 11.3853 24.9139 11.7953 25.4388C11.9033 25.5765 12.0282 25.7012 12.2164 25.9134C11.9835 25.9823 11.853 26.0195 11.7002 26.0642C10.8673 24.9362 10.0474 23.8269 9.16603 22.6356C9.14926 23.4583 8.95174 24.2066 9.39523 24.9065C9.44181 24.9809 9.4884 25.0703 9.49213 25.154C9.50517 25.4258 9.49585 25.6994 9.49585 26.0009C9.29274 26.0009 9.15113 26.0009 8.9797 26.0009C8.94615 25.7552 8.91448 25.5263 8.86976 25.2005C8.6536 25.3588 8.51571 25.4593 8.37037 25.5654C8.37037 26.3267 8.37037 27.0675 8.37037 27.8809C8.13745 27.9814 7.89893 28.0837 7.63433 28.1954C7.63433 28.7371 7.63433 29.2899 7.63433 29.8018C7.38278 30.2075 7.09022 30.2057 6.74177 29.9618C6.79767 30.3099 6.77158 30.6691 6.91693 30.9316C7.1219 31.3001 7.14054 31.5533 6.74736 31.812C6.11195 31.6296 6.02809 31.0321 5.97965 30.5295C5.93306 30.04 6.10263 29.53 6.18089 28.9958C6.67283 29.0833 6.81817 29.5337 7.18153 29.7124C7.53371 28.6198 6.90202 27.5198 7.13122 26.3267C7.34551 26.4718 7.48712 26.5686 7.56539 26.6207C7.75173 27.0098 7.40514 27.4714 8.03496 27.812C7.79458 27.1996 8.24366 26.8069 8.048 26.2373C7.89334 25.7831 7.94924 25.2229 7.72936 24.752C7.5598 24.3592 7.5598 24.0447 8.04987 23.7431ZM8.32751 17.8818C8.47286 17.1503 7.96974 16.7073 7.73682 16.1936C7.19644 15.006 7.1629 15.0209 6.62251 14.7417C7.20762 15.8176 7.748 16.8134 8.32751 17.8818ZM6.37841 30.846C6.40636 30.8441 6.43431 30.8441 6.46226 30.8422C6.46226 30.684 6.46226 30.524 6.46226 30.3657C6.42127 30.3676 6.38027 30.3713 6.34114 30.3732C6.35419 30.5295 6.36537 30.6877 6.37841 30.846ZM9.84803 19.9199C9.80704 19.9199 9.76604 19.92 9.72505 19.9181C9.73437 20.0112 9.74368 20.1061 9.75673 20.1991C9.75673 20.2029 9.81077 20.2047 9.81077 20.2029C9.82567 20.1098 9.83685 20.0149 9.84803 19.9199Z" fill="white"/>
<path d="M0.0204972 37.906C0.0130437 37.7385 0.00559015 37.6194 0 37.5058C0.0559015 37.4611 0.102486 37.3941 0.150934 37.3941C0.585103 37.383 1.01741 37.3867 1.45158 37.3811C2.33855 37.3662 3.14726 37.1224 3.90752 36.6496C4.45349 36.309 4.74045 35.7934 5.03859 35.2704C5.20257 34.9856 5.35723 34.6952 5.55848 34.3304C5.88084 34.4812 6.19575 34.6301 6.52371 34.7845C6.52371 35.06 6.52371 35.2722 6.52371 35.4844C6.52557 35.9907 6.78458 36.402 7.19639 36.6068C7.80385 36.9102 8.43927 37.1298 9.14922 37.2266C10.4275 37.4034 11.7058 37.3346 13.012 37.3941C13.012 37.584 13.012 37.7255 13.012 37.9041C8.69828 37.906 4.40131 37.906 0.0204972 37.906Z" fill="white"/>
<path d="M30.0136 44.1824C30.2223 44.2904 30.3863 44.3648 30.5409 44.4542C31.6142 45.0759 31.8602 46.6747 30.9583 47.4751C30.6117 47.7822 30.1664 48.0075 29.6446 48C28.3123 47.9833 26.98 47.9944 25.6514 47.9944C25.493 47.3392 25.4483 42.3099 25.5862 40.5472C26.5607 40.5472 27.552 40.4709 28.5229 40.5752C29.1229 40.6403 29.7639 40.6999 30.3154 41.087C30.8223 41.4425 31.2807 42.2894 31.0906 42.859C30.921 43.3653 30.7384 43.9014 30.1347 44.0931C30.1086 44.1005 30.0862 44.1266 30.0136 44.1824ZM26.1079 47.6184C27.0564 47.6184 27.9229 47.6054 28.7875 47.624C29.2887 47.6352 29.721 47.4416 30.1626 47.2536C30.7422 47.0061 31.0403 46.2969 30.9266 45.7441C30.8111 45.182 30.2204 44.6961 29.6241 44.6459C29.4098 44.6273 29.1881 44.6589 28.9813 44.6124C28.1446 44.4244 26.8905 44.3965 26.1061 44.5696C26.1079 45.5579 26.1079 46.5444 26.1079 47.6184ZM26.134 41.1075C26.134 42.1536 26.134 43.101 26.134 44.0819C27.0117 44.0819 27.8483 44.1284 28.6757 44.0633C29.1061 44.0298 29.5515 43.8567 29.9372 43.6482C30.4682 43.3597 30.7477 42.4867 30.4738 42.0605C30.1254 41.5189 29.6595 41.1094 28.957 41.1075C28.0328 41.1056 27.1067 41.1075 26.134 41.1075Z" fill="white"/>
<path d="M21.5929 47.92C21.2463 48.1005 21.0134 47.9553 20.8848 47.6836C20.6687 47.2276 20.5029 46.7473 20.3035 46.282C20.2569 46.174 20.1619 46.0866 20.078 45.9749C18.6879 45.9749 17.3034 45.9749 15.8388 45.9749C15.7233 46.2187 15.591 46.483 15.4717 46.7529C15.3264 47.0805 15.209 47.4193 15.0487 47.7376C14.922 47.9888 14.691 48.0503 14.3369 47.9479C15.4866 45.4667 16.6214 43.0172 17.7581 40.5659C17.9127 40.5659 18.032 40.5659 18.2016 40.5659C19.3271 43.0023 20.46 45.4612 21.5929 47.92ZM17.9817 41.3141C17.378 42.6505 16.7817 43.9665 16.1369 45.396C17.4227 45.3588 18.5798 45.4295 19.8022 45.3439C19.1743 43.9572 18.5798 42.6412 17.9817 41.3141Z" fill="white"/>
<path d="M7.12561 40.5658C7.46475 40.5547 7.61009 40.7203 7.63618 40.9884C7.65854 41.2024 7.64177 41.4221 7.64177 41.638C7.64177 43.5905 7.64177 45.5412 7.64177 47.5496C8.33867 47.6929 9.04303 47.5942 9.73994 47.6128C10.448 47.6315 11.1561 47.6166 11.881 47.6166C11.8884 47.7543 11.894 47.8362 11.9015 47.9553C10.312 47.9553 8.74116 47.9553 7.12561 47.9553C7.12561 45.5002 7.12561 43.0414 7.12561 40.5658Z" fill="white"/>
<path d="M11.7412 12.255C11.9928 12.2085 12.1493 12.3443 12.2779 12.5342C12.4288 12.7538 12.5797 12.9753 12.781 13.2694C12.971 12.335 12.8313 11.5365 12.5667 10.7603C12.4325 10.3676 12.412 10.053 12.8257 9.83712C13.286 10.2131 13.286 10.2131 13.0307 10.8311C13.1686 10.9353 13.3195 11.0507 13.5785 11.248C13.5543 10.241 13.763 9.36434 13.4257 8.50441C13.3978 8.43182 13.4332 8.32386 13.4686 8.24382C13.4853 8.2066 13.5673 8.19915 13.6866 8.1489C13.8058 8.53419 14.0127 8.87668 13.9866 9.31409C13.9586 9.80734 13.9978 10.3062 13.9698 10.7994C13.9586 11.0005 13.886 11.2275 13.7648 11.3802C13.6717 11.4974 13.4574 11.516 13.2617 11.5924C13.2617 12.1228 13.2617 12.6738 13.2617 13.288C13.0717 13.3997 12.876 13.5133 12.6953 13.6193C12.2015 13.2192 11.7897 12.8618 11.7412 12.255Z" fill="white"/>
<path d="M11.7412 12.255C11.6201 12.0986 11.5009 11.9442 11.3387 11.7357C11.5586 11.7357 11.7245 11.7357 11.963 11.7357C11.8717 11.9497 11.8065 12.1024 11.7412 12.255Z" fill="white"/>
</g>
<defs>
<clipPath id="clip0_22_427">
<rect width="38" height="48" fill="white"/>
</clipPath>
</defs>
</svg>
